# xmcd
#
# Track frame offsets: 
#        150
#        14286
#        26840
#        36211
#        49098
#        62887
#        74158
#        81860
#        94480
#        108266
#        118926
#        137191
#        151421
#        164486
#
# Disc length: 2252 seconds
#
# Revision: 0
# Processed by: cddbd v1.5.2PL0 Copyright (c) Steve Scherf et al.
# Submitted via: ExactAudioCopyFreeDBPlugin 1.0
#
DISCID=cd08ca0e
DTITLE=Cristy Lane - 14 Golden Hymns
DYEAR=1987
DGENRE=Gospel
TTITLE0=Precious Memories
TTITLE1=Just As I Am 
TTITLE2=Amazing Grace 
TTITLE3=Just A Closer Walk With Thee 
TTITLE4=Ave Maria
TTITLE5=Away In The Manger 
TTITLE6=Rock of Ages 
TTITLE7=He's Got The Whole World In His Hands 
TTITLE8=Footprints In The Sand 
TTITLE9=Sweet Hour Of Prayer 
TTITLE10=Precious Memories 
TTITLE11=Sing To The Lord 
TTITLE12=Standing On The Promises 
TTITLE13=The Lord's Prayer 
EXTD=
EXTT0=
EXTT1=
EXTT2=
EXTT3=
EXTT4=
EXTT5=
EXTT6=
EXTT7=
EXTT8=
EXTT9=
EXTT10=
EXTT11=
EXTT12=
EXTT13=
PLAYORDER=
